<?xml version="1.0" encoding="utf-8"?>
<!-- Generator: Adobe Illustrator 16.0.0, SVG Export Plug-In . SVG Version: 6.00 Build 0)  -->
<!DOCTYPE svg PUBLIC "-//W3C//DTD SVG 1.1//EN" "http://www.w3.org/Graphics/SVG/1.1/DTD/svg11.dtd">
<svg version="1.1" id="Layer_1" xmlns="http://www.w3.org/2000/svg" xmlns:xlink="http://www.w3.org/1999/xlink" x="0px" y="0px"
	 width="90px" height="75.334px" viewBox="0 0 90 75.334" enable-background="new 0 0 90 75.334" xml:space="preserve">
<path fill="#FFFFFF" stroke="#34535D" stroke-width="2" stroke-miterlimit="10" d="M73.343,68.203c0-1.382-1.123-2.504-2.507-2.504
	H9.131c-1.384,0-2.509,1.122-2.509,2.504l0,0c0,1.382,1.125,2.506,2.509,2.506h61.705C72.22,70.709,73.343,69.585,73.343,68.203
	L73.343,68.203z"/>
<path fill="#FFFFFF" stroke="#34535D" stroke-width="2" stroke-miterlimit="10" d="M85.264,64.779c0,3.215-2.606,5.821-5.82,5.821
	H10.558c-3.216,0-5.821-2.606-5.821-5.821V10.447c0-3.215,2.605-5.822,5.821-5.822h68.885c3.214,0,5.82,2.607,5.82,5.822V64.779z"/>
<path fill="#FFFFFF" stroke="#34535D" stroke-width="2" stroke-miterlimit="10" d="M4.737,20.149v44.63
	c0,3.215,2.605,5.821,5.821,5.821h68.885c3.214,0,5.82-2.606,5.82-5.821v-44.63H4.737z"/>
<path fill="#FFFFFF" stroke="#34535D" stroke-width="2" stroke-miterlimit="10" d="M10.543,20.149v40.338
	c0,2.906,2.232,5.262,4.983,5.262h58.948c2.752,0,4.984-2.355,4.984-5.262V20.149H10.543z"/>
<circle fill="#FFFFFF" stroke="#34535D" stroke-width="2" stroke-miterlimit="10" cx="22.928" cy="12.63" r="2.911"/>
<circle fill="#FFD311" stroke="#34535D" stroke-width="2" stroke-miterlimit="10" cx="13.454" cy="12.63" r="2.911"/>
<circle fill="#FFFFFF" stroke="#34535D" stroke-width="2" stroke-miterlimit="10" cx="31.901" cy="12.63" r="2.91"/>
<path fill="#FFFFFF" stroke="#34535D" stroke-width="2" stroke-miterlimit="10" d="M77.865,12.63c0,1.608-1.304,2.912-2.911,2.912
	h-30.56c-1.608,0-2.911-1.304-2.911-2.912l0,0c0-1.606,1.303-2.91,2.911-2.91h30.56C76.562,9.72,77.865,11.024,77.865,12.63
	L77.865,12.63z"/>
<path fill="#FFFFFF" stroke="#34535D" stroke-width="2" stroke-miterlimit="10" d="M72.774,32.642c0,1.323-1.074,2.396-2.397,2.396
	h-51.36c-1.321,0-2.396-1.072-2.396-2.396l0,0c0-1.324,1.075-2.397,2.396-2.397h51.36C71.7,30.245,72.774,31.318,72.774,32.642
	L72.774,32.642z"/>
<path fill="#FFD311" stroke="#34535D" stroke-width="2" stroke-miterlimit="10" d="M72.774,42.949c0,1.322-1.074,2.395-2.397,2.395
	h-51.36c-1.321,0-2.396-1.072-2.396-2.395l0,0c0-1.324,1.075-2.397,2.396-2.397h51.36C71.7,40.552,72.774,41.625,72.774,42.949
	L72.774,42.949z"/>
<path fill="#FFFFFF" stroke="#34535D" stroke-width="2" stroke-miterlimit="10" d="M72.774,53.255c0,1.322-1.074,2.396-2.397,2.396
	h-51.36c-1.321,0-2.396-1.074-2.396-2.396l0,0c0-1.324,1.075-2.396,2.396-2.396h51.36C71.7,50.858,72.774,51.931,72.774,53.255
	L72.774,53.255z"/>
</svg>
