<?xml version="1.0" encoding="utf-8"?>
<!-- Generator: Adobe Illustrator 16.0.0, SVG Export Plug-In . SVG Version: 6.00 Build 0)  -->
<!DOCTYPE svg PUBLIC "-//W3C//DTD SVG 1.1//EN" "http://www.w3.org/Graphics/SVG/1.1/DTD/svg11.dtd">
<svg version="1.1" id="Layer_1" xmlns="http://www.w3.org/2000/svg" xmlns:xlink="http://www.w3.org/1999/xlink" x="0px" y="0px"
	 width="90px" height="75.334px" viewBox="0 0 90 75.334" enable-background="new 0 0 90 75.334" xml:space="preserve">
<g id="Layer_1_1_">
	<path fill="none" stroke="#34535D" stroke-miterlimit="10" d="M72.734,8.867c-3.235,0-5.867,2.631-5.867,5.867v19.072
		c-1.404,0.062-2.717,0.638-3.719,1.638L52.201,46.393V73.4h19.066V56.408l7.334-7.334v-34.34
		C78.602,11.498,75.969,8.867,72.734,8.867z M75.668,47.861l-7.334,7.332v15.273H55.135V47.607l10.089-10.089
		c0.499-0.499,1.189-0.784,1.896-0.784c1.479,0,2.682,1.202,2.682,2.68c0,0.706-0.286,1.398-0.784,1.897l-6.119,6.118l2.073,2.074
		l6.119-6.119c1.061-1.061,1.645-2.47,1.645-3.971c0-2.125-1.188-3.979-2.934-4.93v-19.75c0-1.618,1.316-2.934,2.934-2.934
		s2.934,1.316,2.934,2.934V47.861z"/>
	<path fill="none" stroke="#34535D" stroke-miterlimit="10" d="M19.935,33.806V14.734c0-3.236-2.632-5.867-5.867-5.867
		s-5.867,2.631-5.867,5.867v34.34l7.333,7.334V73.4h19.067V46.393L23.652,35.444C22.652,34.442,21.339,33.868,19.935,33.806z
		 M31.667,70.467h-13.2V55.193l-7.333-7.332V14.734c0-1.618,1.315-2.934,2.933-2.934s2.934,1.316,2.934,2.934v19.75
		c-1.746,0.952-2.934,2.806-2.934,4.93c0,1.5,0.584,2.91,1.644,3.971l6.119,6.119l2.074-2.074l-6.119-6.118
		c-0.499-0.499-0.785-1.19-0.785-1.897c0-1.478,1.203-2.68,2.681-2.68c0.706,0,1.397,0.286,1.896,0.784l10.089,10.089V70.467z"/>
	<path fill="#FFD311" d="M36.067,7.4c0-2.426-1.974-4.4-4.4-4.4s-4.4,1.974-4.4,4.4c0,1.909,1.23,3.522,2.933,4.13v3.811
		l5.867,5.866V25h2.934v-5.007l-5.867-5.867V11.53C34.837,10.923,36.067,9.31,36.067,7.4z M31.667,5.934
		c0.81,0,1.467,0.657,1.467,1.467c0,0.809-0.657,1.466-1.467,1.466S30.201,8.209,30.201,7.4C30.201,6.591,30.858,5.934,31.667,5.934
		z"/>
	<path fill="#FFD311" d="M44.867,25V11.53c1.703-0.607,2.934-2.221,2.934-4.13c0-2.426-1.975-4.4-4.4-4.4
		c-2.426,0-4.4,1.974-4.4,4.4c0,1.909,1.23,3.522,2.934,4.13V25H44.867z M43.401,5.934c0.81,0,1.466,0.657,1.466,1.467
		c0,0.809-0.656,1.466-1.466,1.466c-0.81,0-1.466-0.657-1.466-1.466C41.935,6.591,42.591,5.934,43.401,5.934z"/>
	<path fill="#FFD311" d="M56.602,11.53c1.702-0.607,2.933-2.221,2.933-4.13c0-2.426-1.974-4.4-4.399-4.4s-4.4,1.974-4.4,4.4
		c0,1.909,1.23,3.522,2.934,4.13v2.596l-5.867,5.867V25h2.934v-3.793l5.867-5.866V11.53z M55.135,5.934
		c0.809,0,1.467,0.657,1.467,1.467c0,0.809-0.658,1.466-1.467,1.466c-0.811,0-1.467-0.657-1.467-1.466
		C53.668,6.591,54.324,5.934,55.135,5.934z"/>
	<polygon fill="none" stroke="#34535D" stroke-miterlimit="10" points="56.602,22.067 53.668,22.067 53.668,27.934 33.134,27.934 
		33.134,22.067 30.201,22.067 30.201,30.867 56.602,30.867 	"/>
</g>
</svg>
