<?xml version="1.0" encoding="utf-8"?>
<!-- Generator: Adobe Illustrator 16.0.0, SVG Export Plug-In . SVG Version: 6.00 Build 0)  -->
<!DOCTYPE svg PUBLIC "-//W3C//DTD SVG 1.1//EN" "http://www.w3.org/Graphics/SVG/1.1/DTD/svg11.dtd">
<svg version="1.1" id="Layer_1" xmlns="http://www.w3.org/2000/svg" xmlns:xlink="http://www.w3.org/1999/xlink" x="0px" y="0px"
	 width="90px" height="75.334px" viewBox="0 0 90 75.334" enable-background="new 0 0 90 75.334" xml:space="preserve">
<g>
	<g>
		<path fill="#FFD311" d="M65.874,59.577c-0.721,0-1.305,0.584-1.305,1.305s0.584,1.305,1.305,1.305s1.305-0.584,1.305-1.305
			S66.595,59.577,65.874,59.577z"/>
	</g>
</g>
<g>
	<g>
		<path fill="#34535D" d="M69.788,10.188V7.914C69.788,5.756,68.032,4,65.874,4H24.126c-2.158,0-3.914,1.756-3.914,3.914v2.274
			c-8.51,15.716-8.61,15.249-8.61,15.989c0,0,0,0.001,0,0.001v2.609c0,2.261,1.308,4.364,3.392,5.561v35.144
			c0,0.721,0.584,1.305,1.305,1.305h57.404c0.72,0,1.305-0.584,1.305-1.305V34.349c2.063-1.195,3.392-3.323,3.392-5.561v-2.609
			c0,0,0-0.001,0-0.001C78.398,25.43,78.214,25.751,69.788,10.188z M74.888,24.874h-8.073l-4.349-13.046h5.246L74.888,24.874z
			 M56.742,27.483h7.827v1.305c0,2.158-1.756,3.914-3.914,3.914s-3.913-1.756-3.913-3.914V27.483z M56.543,24.874l-2.175-13.046
			h5.347l4.349,13.046H56.543z M22.821,7.914c0-0.72,0.585-1.305,1.305-1.305h41.748c0.719,0,1.305,0.585,1.305,1.305v1.305
			c-1.242,0-43.105,0-44.357,0V7.914z M54.133,27.483v1.305c0,2.158-1.756,3.914-3.914,3.914s-3.914-1.756-3.914-3.914v-1.305
			H54.133z M46.305,24.874V11.828h5.418l2.175,13.046H46.305z M36.103,24.874l2.174-13.046h5.418v13.046H36.103z M43.695,27.483
			v1.305c0,2.158-1.756,3.914-3.914,3.914c-2.158,0-3.914-1.756-3.914-3.914v-1.305H43.695z M25.936,24.874l4.349-13.046h5.347
			l-2.174,13.046H25.936z M33.258,27.483v1.305c0,2.158-1.756,3.914-3.914,3.914c-2.158,0-3.914-1.756-3.914-3.914v-1.305H33.258z
			 M22.288,11.828h5.246l-4.349,13.046h-8.073L22.288,11.828z M14.211,28.788v-1.305h8.61v1.305c0,2.048-2.052,3.914-4.305,3.914
			c-0.568,0-1.157-0.124-1.705-0.358C15.256,31.682,14.211,30.253,14.211,28.788z M38.477,68.188H25.431v-11.22h13.046V68.188z
			 M38.477,54.358H25.431v-11.22h13.046V54.358z M72.397,68.188H41.086V41.834c0-0.721-0.584-1.305-1.305-1.305H24.126
			c-0.72,0-1.305,0.584-1.305,1.305v26.354h-5.218v-32.94c0.302,0.041,0.607,0.063,0.913,0.063c1.717,0,3.453-0.68,4.762-1.866
			c0.29-0.262,0.55-0.543,0.784-0.836c1.187,1.636,3.112,2.702,5.283,2.702c2.131,0,4.027-1.027,5.218-2.613
			c1.191,1.586,3.087,2.613,5.218,2.613c2.132,0,4.027-1.027,5.219-2.613c1.191,1.586,3.087,2.613,5.219,2.613
			c2.131,0,4.027-1.027,5.219-2.613c1.191,1.586,3.086,2.613,5.218,2.613c2.171,0,4.097-1.066,5.282-2.702
			c0.235,0.293,0.495,0.574,0.784,0.836c1.31,1.187,3.045,1.866,4.763,1.866c0.306,0,0.609-0.021,0.913-0.063V68.188z
			 M75.789,28.788c0,1.506-1.084,2.952-2.697,3.598c-0.527,0.21-1.068,0.316-1.607,0.316c-2.254,0-4.306-1.866-4.306-3.914v-1.305
			h8.61V28.788z"/>
	</g>
</g>
<g>
	<g>
		<path fill="#FFD311" d="M68.483,54.358h-1.305V41.834c0-0.721-0.584-1.305-1.305-1.305H50.219c-0.721,0-1.305,0.584-1.305,1.305
			v12.524h-1.305c-0.721,0-1.305,0.584-1.305,1.305s0.584,1.305,1.305,1.305h20.874c0.721,0,1.305-0.584,1.305-1.305
			S69.204,54.358,68.483,54.358z M64.569,54.358H51.523v-11.22h13.046V54.358z"/>
	</g>
</g>
<g>
	<g>
		<path fill="#FFD311" d="M60.655,59.577H50.219c-0.721,0-1.305,0.584-1.305,1.305s0.584,1.305,1.305,1.305h10.437
			c0.721,0,1.305-0.584,1.305-1.305S61.376,59.577,60.655,59.577z"/>
	</g>
</g>
</svg>
