<?xml version="1.0" encoding="utf-8"?>
<!-- Generator: Adobe Illustrator 16.0.0, SVG Export Plug-In . SVG Version: 6.00 Build 0)  -->
<!DOCTYPE svg PUBLIC "-//W3C//DTD SVG 1.1//EN" "http://www.w3.org/Graphics/SVG/1.1/DTD/svg11.dtd">
<svg version="1.1" id="Layer_1" xmlns="http://www.w3.org/2000/svg" xmlns:xlink="http://www.w3.org/1999/xlink" x="0px" y="0px"
	 width="90px" height="75.334px" viewBox="0 0 90 75.334" enable-background="new 0 0 90 75.334" xml:space="preserve">
<g>
	<rect x="13.955" y="22.14" fill="#FFFFFF" width="20.663" height="18.975"/>
	<rect x="39.07" y="35.046" fill="#FFFFFF" width="34.674" height="5.838"/>
	<rect x="39.07" y="32.081" fill="#FFD311" width="34.674" height="2.06"/>
	<rect x="13.955" y="19.174" fill="#FFD311" width="20.663" height="2.061"/>
	<path fill="#BCBEC0" d="M15.072,54.604h20.103h17.349h20.104c3.718,0,6.953-2.65,7.73-6.245H7.341
		C8.118,51.954,11.353,54.604,15.072,54.604z M43.85,49.895c0.875,0,1.586,0.713,1.586,1.587c0,0.875-0.711,1.588-1.586,1.588
		s-1.587-0.713-1.587-1.588C42.263,50.607,42.975,49.895,43.85,49.895z"/>
	<polygon fill="#FFD311" points="31.254,68.766 31.254,71.173 56.445,71.173 56.445,68.766 54.648,68.766 33.051,68.766 	"/>
	<rect x="39.07" y="19.174" fill="#FFD311" width="34.674" height="2.061"/>
	<polygon fill="#FFFFFF" points="35.955,55.51 34.103,67.86 53.597,67.86 51.744,55.51 	"/>
	<circle fill="#BCBEC0" cx="43.85" cy="51.482" r="0.681"/>
	<rect x="13.955" y="11.908" fill="#FFD311" width="59.79" height="4.152"/>
	<path fill="#FFFFFF" d="M75.772,9.815H11.926v33.627h63.846V9.815z M35.523,21.234v0.906v19.881H13.049V22.14v-0.906v-2.966h22.475
		V21.234z M74.649,34.14v0.906v6.744H38.165v-6.744V34.14v-2.965h36.485V34.14z M74.649,21.234v0.906v6.743H38.165V22.14v-0.906
		v-2.966h36.485V21.234z M74.649,16.965H13.049v-5.964h61.601V16.965z"/>
	<path fill="#FFFFFF" d="M72.628,4.583H15.072c-4.367,0-7.919,3.552-7.919,7.918v34.185c0,0.243,0.014,0.493,0.044,0.769h73.304
		c0.03-0.276,0.044-0.525,0.044-0.769V12.5C80.545,8.135,76.993,4.583,72.628,4.583z M76.678,44.349H11.021V8.91h65.657V44.349z"/>
	<rect x="39.07" y="22.14" fill="#FFFFFF" width="34.674" height="5.837"/>
	<path fill="#34535D" d="M11.021,44.349h65.657V8.91H11.021V44.349z M11.926,9.815h63.846v33.627H11.926V9.815z"/>
	<path fill="#34535D" d="M81.451,12.5c0-4.865-3.958-8.824-8.823-8.824H15.072c-4.866,0-8.825,3.958-8.825,8.824v34.185
		c0,0.246,0.015,0.499,0.041,0.769H6.274l0.076,0.518l0.057,0.388h0.009c0.792,4.104,4.445,7.15,8.655,7.15h19.967L33.187,67.86
		h-2.839v4.219h27.002V67.86h-2.839L52.66,55.51h19.968c4.21,0,7.862-3.047,8.654-7.15h0.009l0.058-0.388l0.075-0.518h-0.013
		c0.026-0.271,0.04-0.522,0.04-0.769V12.5z M54.648,68.766h1.797v2.407H31.254v-2.407h1.796H54.648z M53.597,67.86H34.103
		l1.853-12.351h15.789L53.597,67.86z M72.628,54.604H52.523H35.174H15.072c-3.719,0-6.954-2.65-7.731-6.245h73.018
		C79.581,51.954,76.346,54.604,72.628,54.604z M80.545,46.686c0,0.243-0.014,0.492-0.044,0.769H7.197
		c-0.03-0.275-0.044-0.525-0.044-0.769V12.5c0-4.366,3.552-7.918,7.919-7.918h57.556c4.365,0,7.917,3.552,7.917,7.918V46.686z"/>
	<path fill="#FFD311" d="M43.85,53.069c0.875,0,1.586-0.713,1.586-1.588c0-0.874-0.711-1.587-1.586-1.587s-1.587,0.713-1.587,1.587
		C42.263,52.356,42.975,53.069,43.85,53.069z M43.85,50.801c0.375,0,0.681,0.306,0.681,0.681c0,0.376-0.306,0.682-0.681,0.682
		c-0.376,0-0.682-0.306-0.682-0.682C43.168,51.106,43.474,50.801,43.85,50.801z"/>
	<path fill="#34535D" d="M13.049,16.965h61.601v-5.964H13.049V16.965z M13.955,11.908h59.79v4.152h-59.79V11.908z"/>
	<path fill="#34535D" d="M13.049,21.234v0.906v19.881h22.475V22.14v-0.906v-2.966H13.049V21.234z M13.955,19.174h20.663v2.061
		H13.955V19.174z M13.955,22.14h20.663v18.975H13.955V22.14z"/>
	<path fill="#34535D" d="M38.165,21.234v0.906v6.743h36.485V22.14v-0.906v-2.966H38.165V21.234z M39.07,19.174h34.674v2.061H39.07
		V19.174z M39.07,22.14h34.674v5.837H39.07V22.14z"/>
	<path fill="#34535D" d="M38.165,34.14v0.906v6.744h36.485v-6.744V34.14v-2.965H38.165V34.14z M39.07,32.081h34.674v2.06H39.07
		V32.081z M39.07,35.046h34.674v5.838H39.07V35.046z"/>
</g>
</svg>
