<?xml version="1.0" encoding="utf-8"?>
<!-- Generator: Adobe Illustrator 16.0.0, SVG Export Plug-In . SVG Version: 6.00 Build 0)  -->
<!DOCTYPE svg PUBLIC "-//W3C//DTD SVG 1.1//EN" "http://www.w3.org/Graphics/SVG/1.1/DTD/svg11.dtd">
<svg version="1.1" id="Layer_1" xmlns="http://www.w3.org/2000/svg" xmlns:xlink="http://www.w3.org/1999/xlink" x="0px" y="0px"
	 width="90px" height="75.334px" viewBox="0 0 90 75.334" enable-background="new 0 0 90 75.334" xml:space="preserve">
<polyline fill="none" stroke="#FFD311" stroke-width="3" stroke-linecap="round" stroke-linejoin="round" stroke-miterlimit="10" points="
	39.508,23.65 44.21,23.65 48.912,18.948 53.614,28.352 58.315,16.597 63.018,23.65 "/>
<path fill="none" stroke="#34535D" stroke-width="3" stroke-linecap="round" stroke-linejoin="round" stroke-miterlimit="10" d="
	M13.647,58.915l6.112-9.874c3.527-5.407,9.404-8.934,15.987-8.934h15.516l0,0c0,5.172-4.231,9.403-9.404,9.403h-4.702"/>
<path fill="none" stroke="#34535D" stroke-width="3" stroke-linecap="round" stroke-linejoin="round" stroke-miterlimit="10" d="
	M41.859,49.511h18.808l2.821-3.762c2.586-3.526,6.817-5.642,11.284-5.642l0,0l-6.348,11.284c-3.291,6.112-9.874,9.874-16.691,9.874
	l0,0c-11.05,0-21.864,3.291-31.033,9.404l0,0"/>
<path fill="none" stroke="#34535D" stroke-width="3" stroke-linecap="round" stroke-linejoin="round" stroke-miterlimit="10" d="
	M44.445,40.107l-10.345-11.05l-2.821-3.056c-4.702-4.937-4.702-12.695,0-17.632l0,0c4.702-4.937,12.46-4.937,17.162,0l2.352,2.351
	c0.234,0.235,0.705,0.235,0.94,0l2.351-2.351c4.702-4.937,12.46-4.937,17.162,0l0,0c4.702,4.937,4.702,12.695,0,17.632l-2.821,3.056
	L58.315,39.401l-6.582,6.818"/>
</svg>
