<?xml version="1.0" encoding="utf-8"?>
<!-- Generator: Adobe Illustrator 16.0.0, SVG Export Plug-In . SVG Version: 6.00 Build 0)  -->
<!DOCTYPE svg PUBLIC "-//W3C//DTD SVG 1.1//EN" "http://www.w3.org/Graphics/SVG/1.1/DTD/svg11.dtd">
<svg version="1.1" id="Layer_1" xmlns="http://www.w3.org/2000/svg" xmlns:xlink="http://www.w3.org/1999/xlink" x="0px" y="0px"
	 width="90px" height="75.334px" viewBox="0 0 90 75.334" enable-background="new 0 0 90 75.334" xml:space="preserve">
<path fill="#34535D" d="M82.871,34.194h-6.683V23.056c0-0.738-0.599-1.336-1.337-1.336h-20.94V10.581
	c0-0.738-0.599-1.336-1.337-1.336H7.129c-0.738,0-1.336,0.598-1.336,1.336v41.881c0,0.738,0.598,1.337,1.336,1.337h10.176
	c0.408,3.742,3.772,6.445,7.515,6.038c3.18-0.347,5.692-2.858,6.038-6.038h29.896c0.407,3.747,3.776,6.455,7.524,6.047
	c3.185-0.348,5.699-2.862,6.047-6.047h8.545c0.738,0,1.337-0.599,1.337-1.337V35.531C84.208,34.793,83.609,34.194,82.871,34.194z
	 M24.06,57.221c-2.293,0.01-4.16-1.842-4.17-4.135c-0.01-2.293,1.841-4.16,4.135-4.17s4.161,1.841,4.17,4.134
	c0,0.009,0,0.019,0,0.026c-0.005,2.27-1.83,4.115-4.099,4.145H24.06z M24.06,46.251c-3.004,0.019-5.644,1.997-6.505,4.874H8.466
	V11.917h42.772v39.208h-20.62c-0.861-2.886-3.511-4.866-6.523-4.874H24.06z M67.535,57.221c-2.293,0-4.152-1.859-4.152-4.152
	c0-2.294,1.859-4.153,4.153-4.152c2.293,0,4.152,1.858,4.152,4.152c0,0.002,0,0.006,0,0.008
	C71.684,55.367,69.826,57.221,67.535,57.221z M81.535,51.125h-7.459c-1.102-3.6-4.913-5.625-8.514-4.523
	c-2.165,0.663-3.859,2.358-4.522,4.523h-7.129V24.393h19.604v11.139c0,0.738,0.598,1.336,1.336,1.336h6.684V51.125z"/>
<path fill="#FFD311" d="M14.258,25.284h27.178l-4.456,4.456c-0.54,0.503-0.57,1.349-0.067,1.889c0.503,0.541,1.349,0.57,1.889,0.067
	c0.023-0.021,0.045-0.043,0.067-0.067l5.997-5.997c0.521-0.522,0.521-1.368,0-1.889l-5.997-5.997
	c-0.532-0.522-1.385-0.514-1.907,0.018c-0.521,0.532-0.514,1.385,0.018,1.907l2.94,2.94H14.258c-0.738,0-1.337,0.599-1.337,1.336
	C12.921,24.685,13.52,25.284,14.258,25.284z"/>
<path fill="#FFD311" d="M43.218,38.205c0-0.738-0.599-1.338-1.337-1.338H14.792l4.366-4.357c0.519-0.526,0.513-1.374-0.013-1.893
	c-0.527-0.519-1.375-0.513-1.894,0.014l-5.997,5.997c-0.521,0.521-0.521,1.367,0,1.889l5.997,5.998
	c0.524,0.526,1.375,0.528,1.902,0.004c0.526-0.523,0.528-1.375,0.004-1.902l0,0l-3.083-3.074h25.841
	C42.641,39.521,43.218,38.929,43.218,38.205z"/>
</svg>
