<?xml version="1.0" encoding="utf-8"?>
<!-- Generator: Adobe Illustrator 16.0.0, SVG Export Plug-In . SVG Version: 6.00 Build 0)  -->
<!DOCTYPE svg PUBLIC "-//W3C//DTD SVG 1.1//EN" "http://www.w3.org/Graphics/SVG/1.1/DTD/svg11.dtd">
<svg version="1.1" id="Layer_1" xmlns="http://www.w3.org/2000/svg" xmlns:xlink="http://www.w3.org/1999/xlink" x="0px" y="0px"
	 width="44px" height="75.334px" viewBox="0 0 44 75.334" enable-background="new 0 0 44 75.334" xml:space="preserve">
<g>
	<path stroke="#34535D" stroke-width="0.75" stroke-miterlimit="10" d="M37.007,72.813L37.007,72.813L6.975,72.807
		c-2.425-0.001-4.398-1.863-4.399-4.154l0.02-61.979C2.593,5.568,3.054,4.526,3.888,3.739c0.833-0.786,1.936-1.219,3.104-1.219
		l30.035,0.007c2.425,0.001,4.396,1.865,4.396,4.156L41.409,68.66C41.407,70.95,39.433,72.813,37.007,72.813 M6.994,3.043
		c-1.026,0-1.992,0.379-2.723,1.069C3.542,4.8,3.14,5.709,3.14,6.674L3.122,68.652c0,2.002,1.729,3.632,3.853,3.632l30.032,0.007
		c2.125,0,3.854-1.629,3.855-3.631l0.015-61.977c0-2.002-1.727-3.632-3.85-3.632L6.994,3.043z"/>
	<path fill="#FFD311" d="M35.822,7.752H35.82c-0.639-0.002-1.156-0.495-1.154-1.097c-0.001-0.288,0.117-0.562,0.332-0.769
		c0.219-0.211,0.514-0.327,0.825-0.327c0.64,0.001,1.158,0.494,1.156,1.098C36.979,7.26,36.461,7.752,35.822,7.752 M35.823,6.081
		c-0.166,0-0.322,0.062-0.438,0.174c-0.112,0.108-0.175,0.25-0.175,0.4c0,0.315,0.275,0.573,0.612,0.575
		c0.338-0.001,0.612-0.258,0.612-0.574C36.435,6.339,36.16,6.082,35.823,6.081"/>
	<path stroke="#34535D" stroke-width="0.75" stroke-miterlimit="10" d="M38.478,65.594L38.478,65.594L5.259,65.585
		c-0.151,0-0.273-0.117-0.273-0.261L5.001,9.112c0-0.144,0.123-0.261,0.273-0.261l33.217,0.007c0.072,0,0.142,0.028,0.192,0.076
		c0.05,0.049,0.08,0.116,0.08,0.186L38.75,65.333c0,0.069-0.029,0.135-0.081,0.185C38.62,65.566,38.55,65.594,38.478,65.594
		 M5.531,65.063l32.673,0.009L38.219,9.38L5.547,9.374L5.531,65.063z"/>
	<path fill="#231F20" stroke="#34535D" stroke-width="0.75" stroke-miterlimit="10" d="M35.491,15.957H8.117
		c-0.15,0-0.272-0.116-0.272-0.261v-2.82c0-0.298,0.256-0.541,0.569-0.541h26.782c0.313,0,0.568,0.243,0.568,0.541v2.82
		C35.765,15.841,35.642,15.957,35.491,15.957 M8.391,15.435h26.828v-2.558c0-0.009-0.011-0.018-0.022-0.018H8.414
		c-0.014,0-0.023,0.009-0.023,0.018V15.435z"/>
	<path fill="#231F20" stroke="#34535D" stroke-width="0.75" stroke-miterlimit="10" d="M35.196,36.619H8.414
		c-0.313,0-0.569-0.243-0.569-0.541V15.696c0-0.145,0.122-0.261,0.272-0.261h27.374c0.15,0,0.273,0.117,0.273,0.261v20.382
		C35.765,36.375,35.51,36.619,35.196,36.619 M8.391,15.957v20.121c0,0.01,0.01,0.017,0.023,0.017h26.782
		c0.012,0,0.022-0.007,0.022-0.017V15.957H8.391z"/>
	
		<rect x="9.212" y="13.885" fill="#231F20" stroke="#FFD311" stroke-width="0.75" stroke-miterlimit="10" width="1.095" height="0.523"/>
	
		<rect x="11.403" y="13.885" fill="#231F20" stroke="#FFD311" stroke-width="0.75" stroke-miterlimit="10" width="1.096" height="0.523"/>
	
		<rect x="13.594" y="13.885" fill="#231F20" stroke="#FFD311" stroke-width="0.75" stroke-miterlimit="10" width="1.094" height="0.523"/>
	<path fill="#231F20" stroke="#34535D" stroke-width="0.75" stroke-miterlimit="10" d="M33.302,22.156H10.308
		c-0.151,0-0.273-0.117-0.273-0.261v-4.132c0-0.144,0.123-0.262,0.273-0.262h22.994c0.15,0,0.273,0.118,0.273,0.262v4.132
		C33.575,22.039,33.452,22.156,33.302,22.156 M10.581,21.633h22.448v-3.608H10.581V21.633z"/>
	<path fill="#231F20" stroke="#34535D" stroke-width="0.75" stroke-miterlimit="10" d="M33.302,28.355H10.307
		c-0.15,0-0.273-0.117-0.273-0.261v-4.133c0-0.144,0.123-0.262,0.273-0.262h22.995c0.15,0,0.272,0.118,0.272,0.262v4.133
		C33.574,28.239,33.452,28.355,33.302,28.355 M10.58,27.833h22.448v-3.61H10.58V27.833z"/>
	<path fill="#231F20" stroke="#34535D" stroke-width="0.75" stroke-miterlimit="10" d="M33.302,34.551H10.307
		c-0.15,0-0.273-0.116-0.273-0.261v-4.131c0-0.144,0.123-0.261,0.273-0.261h22.995c0.15,0,0.272,0.117,0.272,0.261v4.131
		C33.574,34.435,33.452,34.551,33.302,34.551 M10.58,34.028h22.448v-3.607H10.58V34.028z"/>
	<path fill="#FFD311" stroke="#34535D" stroke-width="0.75" stroke-miterlimit="10" d="M27.016,69.078
		c0,0.541-0.352,0.979-0.789,0.979h-8.455c-0.435,0-0.79-0.438-0.79-0.979v-0.808c0-0.54,0.354-0.981,0.79-0.981h8.455
		c0.438,0,0.789,0.441,0.789,0.981V69.078z"/>
	<path fill="#FFD311" stroke="#34535D" stroke-width="0.75" stroke-miterlimit="10" d="M21.803,41.226
		c-5.445,0-9.858,4.163-9.858,9.3c0,5.134,4.414,9.297,9.858,9.297s9.859-4.163,9.859-9.297
		C31.662,45.389,27.248,41.226,21.803,41.226"/>
	<path fill="#FFFFFF" stroke="#34535D" stroke-width="0.75" stroke-miterlimit="10" d="M24.309,47.034
		c-1.677,0-2.296,1.352-2.296,1.352s-0.705-1.352-2.295-1.352c-1.735,0-2.647,1.321-2.647,2.641c0,2.191,4.942,5.494,4.942,5.494
		s4.916-3.275,4.916-5.494C26.928,48.329,25.985,47.034,24.309,47.034"/>
</g>
</svg>
