<?xml version="1.0" encoding="utf-8"?>
<!-- Generator: Adobe Illustrator 16.0.0, SVG Export Plug-In . SVG Version: 6.00 Build 0)  -->
<!DOCTYPE svg PUBLIC "-//W3C//DTD SVG 1.1//EN" "http://www.w3.org/Graphics/SVG/1.1/DTD/svg11.dtd">
<svg version="1.1" id="Layer_1" xmlns="http://www.w3.org/2000/svg" xmlns:xlink="http://www.w3.org/1999/xlink" x="0px" y="0px"
	 width="90px" height="75.334px" viewBox="0 0 90 75.334" enable-background="new 0 0 90 75.334" xml:space="preserve">
<path fill="none" stroke="#34535D" stroke-width="3" stroke-linecap="round" stroke-linejoin="round" stroke-miterlimit="10" d="
	M29.323,70.182h35.362c5.316,0,9.478-4.161,9.478-9.477l0,0c0-3.93-2.542-7.628-6.472-9.015L34.408,40.135
	c-10.17-3.236-20.57,4.16-20.57,14.562l0,0C13.837,63.247,20.771,70.182,29.323,70.182z"/>
<circle fill="none" stroke="#FFD311" stroke-width="3" stroke-linecap="round" stroke-linejoin="round" stroke-miterlimit="10" cx="39.261" cy="56.313" r="6.934"/>
<path fill="none" stroke="#34535D" stroke-width="3" stroke-linecap="round" stroke-linejoin="round" stroke-miterlimit="10" d="
	M34.639,21.644h-7.396c-4.16,0-8.089-1.618-11.094-4.622l0,0"/>
<line fill="none" stroke="#34535D" stroke-width="3" stroke-linecap="round" stroke-linejoin="round" stroke-miterlimit="10" x1="27.705" y1="21.644" x2="36.95" y2="40.135"/>
<line fill="none" stroke="#34535D" stroke-width="3" stroke-linecap="round" stroke-linejoin="round" stroke-miterlimit="10" x1="66.996" y1="10.088" x2="57.752" y2="47.068"/>
<path fill="none" stroke="#34535D" stroke-width="3" stroke-linecap="round" stroke-linejoin="round" stroke-miterlimit="10" d="
	M55.439,12.399L55.439,12.399c7.166,0,14.1-3.466,18.492-9.245l0,0"/>
<line fill="none" stroke="#FFD311" stroke-width="3" stroke-linecap="round" stroke-linejoin="round" stroke-miterlimit="10" x1="39.261" y1="56.313" x2="53.128" y2="56.313"/>
</svg>
