<svg xmlns="http://www.w3.org/2000/svg" viewBox="0 0 357 255"><style><![CDATA[.B{fill:#fcd15c}.C{fill:#f5c349}.D{fill:#eef0f7}.E{fill:#efa689}.F{fill:#132b45}.G{fill:#e94e27}.H{fill:#ffdc83}.I{fill:#f9c7af}]]></style><path d="M269.6 71.3c-.4-5.9-2-11.7-4.9-16.8l4.9-2.7c-2.5-4.4-5.6-8.4-9.4-11.8l-3.7 4.2c-4.4-3.9-9.7-6.8-15.4-8.4l1.5-5.3h-.1c-4-1.1-8.1-1.7-12.3-1.7-.9 0-1.8 0-2.6.1l.3 5.6c-5.9.4-11.7 2-16.8 4.9l-2.7-4.9c-4.4 2.5-8.4 5.6-11.8 9.4l4.2 3.7c-3.9 4.4-6.8 9.7-8.5 15.4l-5.3-1.5v.1c-1.1 4-1.7 8.1-1.7 12.3 0 .9 0 1.7.1 2.6l5.6-.3c.4 5.9 2 11.7 4.9 16.8l-4.9 2.7c2.5 4.4 5.6 8.4 9.4 11.8l3.7-4.2c4.4 3.9 9.7 6.8 15.4 8.5l-1.6 5.4h.1c4 1.1 8.1 1.7 12.3 1.7.9 0 1.8 0 2.7-.1l-.3-5.6c5.9-.4 11.7-2.1 16.8-4.9l2.7 4.9c4.4-2.5 8.4-5.7 11.8-9.4l-4.2-3.7c3.9-4.4 6.8-9.7 8.4-15.4l5.4 1.5c1.1-4 1.7-8.1 1.7-12.3 0-.9 0-1.8-.1-2.7l-5.6.1zm-49.1 36.9l.3-1-.3 1zm32.7-28c-2.9 10.3-12.3 17.4-22.9 17.4a23.72 23.72 0 0 1-6.5-.9c-12.7-3.6-20-16.8-16.4-29.5s16.8-20 29.5-16.4c10.2 2.9 17.3 12.2 17.3 22.9-.1 2.2-.4 4.4-1 6.5zm95.6-1.3l-3.7.7c-.6-2.9-1.6-5.6-3-8.2l3.3-1.8c-2.4-4.4-5.9-8.1-10-10.9l-2.1 3.1c-2.4-1.6-5.1-2.9-7.9-3.7l1-3.6-.2-.1a31.33 31.33 0 0 0-8.6-1.2c-2 0-4 .2-6 .6l.7 3.7c-2.9.6-5.6 1.6-8.2 3l-1.8-3.3c-4.4 2.4-8.1 5.8-10.9 9.9l3.1 2.1c-1.6 2.4-2.9 5.1-3.7 7.9l-3.6-1-.1.2c-1.3 4.7-1.6 9.7-.6 14.5l3.7-.7c.5 2.9 1.5 5.7 2.9 8.2l-3.3 1.8c2.4 4.4 5.8 8.2 9.9 11l2.1-3.1c2.4 1.7 5.1 2.9 7.9 3.7l-1.1 3.6.3.1a31.33 31.33 0 0 0 8.6 1.2 30.78 30.78 0 0 0 6.1-.6l-.6-3.8c2.9-.6 5.6-1.6 8.2-3l1.8 3.3c4.4-2.4 8.1-5.9 10.9-10l-3.1-2.1c1.6-2.4 2.9-5.1 3.7-7.9l3.6 1v-.1c1.3-4.7 1.6-9.7.7-14.5zm-31.2 24.9c-10.4 0-18.9-8.4-19-18.9s8.4-18.9 18.9-19c10.4 0 18.9 8.4 19 18.9 0 1.8-.2 3.5-.7 5.2a18.84 18.84 0 0 1-18.2 13.8z" class="D"/><path d="M64.2,66.6h231.2c1,0,1.8,0.8,1.8,1.8v138.2c0,1-0.8,1.8-1.8,1.8H64.2c-1,0-1.8-0.8-1.8-1.8V68.4 C62.4,67.4,63.2,66.6,64.2,66.6z" class="F"/><path fill="#d2ecfc" d="M68.8 73h222.1v129H68.8z"/><g class="D"><path d="M68.9 176.7l-.2-1c21.7-3.6 41.6-9.4 59.1-17.2 35.7-15.9 62.1-47.5 71.3-85.5l1 .3c-9.3 38.3-35.9 70.2-71.9 86.2-17.5 7.7-37.5 13.6-59.3 17.2z"/><path d="M68.9 177.3l-.2-1c23.3-3.6 44.6-9.5 63.3-17.6 37.1-16.1 64-47.4 73.8-85.8l1 .2c-9.8 38.7-36.9 70.3-74.4 86.5-18.7 8.2-40.1 14.2-63.5 17.7z"/><path d="M68.9 178l-.1-1c25-3.5 47.7-9.6 67.6-17.9 38.5-16.2 66.2-47.6 76.2-86.2l1 .2c-10 38.9-38 70.5-76.8 86.8-20 8.5-42.8 14.5-67.9 18.1z"/><path d="M68.9 178.5l-.1-.9c26.5-3.5 50.7-9.6 71.8-18.2 39.8-16.3 68.5-47.8 78.7-86.5l.9.2c-10.2 39-39.1 70.8-79.2 87.2-21.3 8.6-45.5 14.8-72.1 18.2z"/><path d="M68.9 179.1l-.1-.9c28.2-3.4 53.8-9.7 76-18.5 41.1-16.3 70.7-47.9 81.1-86.8l.9.2c-10.5 39.2-40.3 71-81.7 87.4-22.3 8.9-47.9 15.1-76.2 18.6z"/><path d="M68.9 179.6l-.1-.9c29.8-3.4 56.8-9.7 80.3-18.7 42.5-16.3 73-48.1 83.6-87.2l.9.2c-10.7 39.3-41.4 71.3-84.1 87.7-23.7 9.3-50.8 15.6-80.6 18.9z"/><path d="M68.9 180.1l-.1-.8c31.4-3.3 59.8-9.7 84.5-18.9 43.8-16.4 75.2-48.3 86.1-87.5l.8.2c-10.9 39.5-42.5 71.6-86.6 88.1-24.7 9.2-53.2 15.6-84.7 18.9z"/><path d="M68.9 180.6l-.1-.8c33-3.2 62.8-9.7 88.7-19.1 45.2-16.5 77.5-48.5 88.6-87.8l.8.2c-11.2 39.6-43.6 71.8-89.1 88.4-26 9.4-55.9 15.9-88.9 19.1z"/><path d="M68.9 181.1l-.1-.8c34.6-3.2 65.9-9.7 93-19.3 46.5-16.5 79.7-48.6 91.1-88.2l.7.2c-11.4 39.8-44.8 72.1-91.5 88.7-27.2 9.7-58.6 16.2-93.2 19.4z"/><path d="M68.8 181.6l-.1-.7c36.2-3.1 68.9-9.7 97.2-19.5 47.9-16.6 82-48.8 93.5-88.5l.7.2c-11.6 39.9-45.9 72.3-94 89-28.2 9.8-61 16.3-97.3 19.5z"/><path d="M68.8 182l-.1-.7c37.9-3.1 72-9.7 101.4-19.6 49.3-16.6 84.3-49 96-88.8l.7.2c-11.8 40.1-47 72.6-96.5 89.3C141 172.3 106.8 179 68.8 182z"/><path d="M68.8 182.5v-.7c39.5-3 75-9.6 105.7-19.7 50.7-16.7 86.6-49.2 98.5-89.2l.6.2c-12 40.2-48 72.8-98.9 89.6-30.7 10.1-66.3 16.8-105.9 19.8z"/><path d="M68.8 182.9v-.6c40.4-2.9 78.4-9.7 109.9-19.8 52.1-16.7 88.9-49.3 101-89.5l.6.2c-12.2 40.3-49.2 73.1-101.4 89.9-31.5 10-69.6 16.9-110.1 19.8z"/><path d="M68.8 183.3v-.6c42.1-2.8 81.5-9.7 114.1-20 53.5-16.8 91.2-49.5 103.5-89.8l.6.2c-12.4 40.5-50.2 73.4-103.9 90.2-32.7 10.2-72.2 17.2-114.3 20z"/><path d="M68.8 183.7v-.5c43.8-2.8 84.7-9.7 118.4-20.1 26-8 48.3-19.4 66.2-34 17.5-14.2 30-30.6 37.2-48.8l.5.2c-7.3 18.3-19.8 34.8-37.4 49-18 14.6-40.4 26.1-66.4 34.1-33.7 10.4-74.7 17.3-118.5 20.1z"/><path d="M68.8 184.1v-.5c45.2-2.7 87.6-9.6 122.6-20.1 45.9-13.8 81.1-38.4 99.3-69.5l.5.3c-18.2 31.2-53.5 55.9-99.6 69.7-35.1 10.4-77.5 17.4-122.8 20.1z"/><path d="M68.8 184.5v-.5c46.8-2.6 90.7-9.6 126.8-20.2 42.2-12.4 75-33.1 95-59.9l.4.3c-20.1 26.9-53 47.7-95.3 60.1-36.1 10.5-80 17.5-126.9 20.2z"/><path d="M68.8 184.9v-.5c48.4-2.6 93.8-9.6 131.1-20.3 38.6-11.1 70.1-29.2 90.8-52.3l.3.3c-20.8 23.2-52.3 41.3-91 52.5-37.4 10.6-82.7 17.7-131.2 20.3z"/><path d="M68.8 185.2v-.4c50-2.5 96.8-9.6 135.3-20.4 35.7-10 65.6-25.9 86.6-46.1l.3.3c-21.1 20.2-51.1 36.1-86.8 46.2-38.5 10.8-85.3 17.9-135.4 20.4z"/><path d="M68.8 185.6v-.4c51.6-2.5 99.9-9.6 139.6-20.5 33-9.1 61.5-23.2 82.4-40.7l.2.3c-20.9 17.6-49.4 31.7-82.5 40.8-39.7 10.9-88 18-139.7 20.5z"/><path d="M68.8 186v-.3c53.1-2.4 102.8-9.5 143.8-20.5 31-8.4 57.3-20.5 78.2-36.1l.2.3c-20.9 15.6-47.2 27.8-78.3 36.2-41 10.9-90.7 18-143.9 20.4z"/><path d="M68.8 186.3v-.3c54.8-2.4 106-9.5 148-20.6 28.8-7.6 53.7-18.4 74-32.1l.2.2c-20.3 13.7-45.2 24.5-74.1 32.1-42.1 11.2-93.3 18.4-148.1 20.7z"/><path d="M68.8 186.7v-.3c56.4-2.3 109-9.4 152.3-20.7 26.6-6.9 50.1-16.5 69.7-28.4l.1.2c-19.7 12-43.1 21.6-69.8 28.5-43.2 11.2-95.9 18.4-152.3 20.7z"/></g><path fill="#fff" d="M68.8 73h222.1v6.8H68.8z"/><path fill="#182c4b" d="M158.8 208.4H201v32.1h-42.2z"/><g class="F"><path d="M133.5 240.5h92.7v7.1h-92.7zM19.6 96.5l7.7-4.3 12.8 23.2c1 1.9.4 4.2-1.5 5.3l-.9.5c-1.9 1-4.2.4-5.3-1.5L19.6 96.5z"/><circle cx="89" cy="68.6" r="9"/><path d="M91.3 59.9a9.03 9.03 0 0 1 1.1 12.7c-2.2 2.6-5.7 3.8-9.1 3A9.03 9.03 0 0 0 96 74.5a9.03 9.03 0 0 0-1.1-12.7c-1-1-2.3-1.6-3.6-1.9z"/></g><path d="M12.518 82.12l13.206-4.337 6.864 20.902-13.206 4.337z" class="D"/><path d="M18.8 103.2l.6-.2-6.9-20.9-.6.2c-2.4.7-3.7 3.2-2.9 5.6l4.1 12.4c.7 2.4 3.3 3.7 5.7 2.9-.1 0 0 0 0 0zm79-8l-65.3 3.5-6.8-20.9 54.5-35.9z" fill="#182c4b"/><path d="M81.1 37l.6-.2c1.2-.4 2.5.3 2.9 1.5l18.8 57.3c.4 1.2-.3 2.5-1.5 2.9l-.6.2c-1.2.4-2.5-.3-2.9-1.5L79.6 39.9c-.4-1.2.3-2.5 1.5-2.9z" class="D"/><path d="M135.2 11.6L97.3 55.5l45-36.6-7.1-7.3zm-31.5 52.8l60.6-14.5-3.2-9.7-57.4 24.2zm56.6 23.8l1.4-10.2-57.9-2.8 56.5 13z" class="G"/><path d="M203.1 72.7c4.6 0 8.4 3.7 8.4 8.3s-3.7 8.4-8.3 8.4-8.4-3.7-8.4-8.3 3.7-8.4 8.3-8.4zm7.1 8.4a7.13 7.13 0 0 0-7.1-7.1 7.13 7.13 0 0 0-7.1 7.1 7.13 7.13 0 0 0 7.1 7.1 7.13 7.13 0 0 0 7.1-7.1z" class="B"/><path d="M203.1 73.9a7.13 7.13 0 0 1 7.1 7.1 7.13 7.13 0 0 1-7.1 7.1c-3.9 0-7.1-3.1-7.1-7 0-4 3.2-7.2 7.1-7.2zm6.6 7.2c0-3.7-3-6.6-6.6-6.6-3.7 0-6.6 3-6.6 6.6 0 3.7 3 6.6 6.6 6.6 3.7 0 6.6-2.9 6.6-6.6z" class="C"/><path d="M203.1 74.4c3.7 0 6.6 3 6.6 6.6 0 3.7-3 6.6-6.6 6.6-3.7 0-6.6-3-6.6-6.6s2.9-6.6 6.6-6.6zm5.7 6.7c0-3.2-2.6-5.7-5.7-5.7-3.2 0-5.7 2.6-5.7 5.7 0 3.2 2.6 5.7 5.7 5.7 3.2 0 5.7-2.6 5.7-5.7z" class="H"/><path d="M203.1 75.4c3.2 0 5.7 2.6 5.7 5.7 0 3.2-2.6 5.7-5.7 5.7-3.2 0-5.7-2.6-5.7-5.7a5.63 5.63 0 0 1 5.7-5.7z" class="B"/><path d="M204.1 78.4c.7.3 1.1 1 1 1.7v.1h-.9c0-.4-.1-.7-.4-1l-.4 1.6c1.1.2 1.7.6 1.7 1.5v.1c0 1-.7 1.6-2 1.6h-.4l-.2 1h-.7l.3-1.1c-.7-.3-1.2-1-1.1-1.7h.9c0 .4.1.7.4.9l.4-1.6c-1.1-.2-1.6-.7-1.6-1.5v-.1c0-1 .8-1.6 2-1.6h.3l.2-1h.7l-.2 1.1zm-1.3 2.2l.4-1.7h-.2c-.6 0-1.1.3-1.1.8v.1c.1.4.3.7.9.8zm1.5 1.7c0-.5-.3-.7-.9-.9l-.4 1.8h.2c.6 0 1.1-.3 1.1-.9z" class="C"/><path d="M197.1 33.4a10.5 10.5 0 1 1 0 21 10.5 10.5 0 1 1 0-21zm9 10.5c0-4.9-4.1-8.9-9-8.9s-8.9 4.1-8.9 9 4 8.9 8.9 8.9a8.96 8.96 0 0 0 9-9z" class="B"/><path d="M197.1 34.9a8.96 8.96 0 0 1 9 9 8.96 8.96 0 1 1-18 0c0-4.9 4-9 8.9-9h.1zm8.3 9a8.28 8.28 0 1 0-16.6 0 8.28 8.28 0 1 0 16.6 0z" class="C"/><path d="M197.1 35.6a8.28 8.28 0 1 1 0 16.6 8.28 8.28 0 1 1 0-16.6zm7.2 8.3a7.17 7.17 0 1 0-14.4 0 7.17 7.17 0 0 0 7.2 7.2c4 0 7.2-3.3 7.2-7.2z" class="H"/><path d="M197.1 36.7a7.17 7.17 0 0 1 7.2 7.2 7.17 7.17 0 1 1-14.4 0c0-4 3.3-7.2 7.2-7.2z" class="B"/><path d="M198.4 40.5c.9.3 1.4 1.2 1.3 2.1v.2h-1.1c0-.5-.1-.9-.4-1.3l-.5 2c1.4.2 2.1.8 2.1 1.9v.1c0 1.3-.9 2.1-2.5 2.1h-.5l-.3 1.2h-.9l.3-1.4c-.9-.3-1.4-1.2-1.3-2.1v-.1h1.1c0 .4.2.9.5 1.2l.5-2c-1.4-.2-2-.8-2-1.8v-.1c0-1.3 1-2 2.5-2h.4l.3-1.2h.9l-.4 1.2zm-1.6 2.8l.5-2.1h-.2c-.8 0-1.4.4-1.4 1s.3 1 1.1 1.1zm1.8 2.2c0-.6-.4-.9-1.2-1.1l-.5 2.2h.3c.8 0 1.4-.4 1.4-1.1z" class="C"/><path d="M179.5 61.9c4.6 0 8.3 3.7 8.3 8.4s-3.7 8.3-8.4 8.3a8.28 8.28 0 0 1-8.3-8.3c0-4.6 3.7-8.4 8.4-8.4-.1 0 0 0 0 0zm7.1 8.4a7.13 7.13 0 0 0-7.1-7.1 7.13 7.13 0 0 0-7.1 7.1 7.13 7.13 0 0 0 7.1 7.1 7.13 7.13 0 0 0 7.1-7.1z" class="B"/><path d="M179.5 63.1c3.9 0 7.2 3.2 7.2 7.1s-3.2 7.2-7.1 7.2-7.2-3.2-7.2-7.1c-.1-4 3.1-7.2 7.1-7.2zm6.6 7.2c0-3.7-3-6.6-6.6-6.6-3.7 0-6.6 3-6.6 6.6 0 3.7 3 6.6 6.6 6.6s6.6-3 6.6-6.6z" class="C"/><path d="M179.5 63.6c3.7 0 6.6 3 6.6 6.6 0 3.7-3 6.6-6.6 6.6-3.7 0-6.6-3-6.6-6.6-.1-3.6 2.9-6.6 6.6-6.6zm5.7 6.7c0-3.2-2.6-5.7-5.7-5.7-3.2 0-5.7 2.6-5.7 5.7 0 3.2 2.6 5.7 5.7 5.7s5.7-2.6 5.7-5.7z" class="H"/><path d="M179.5 64.6c3.2 0 5.7 2.6 5.7 5.7 0 3.2-2.6 5.7-5.7 5.7-3.2 0-5.7-2.6-5.7-5.7-.1-3.2 2.5-5.7 5.7-5.7z" class="B"/><path d="M180.4 67.6c.7.3 1.1 1 1 1.7v.1h-.9c0-.4-.1-.7-.4-1l-.4 1.6c1.1.2 1.7.6 1.7 1.5v.1c0 1-.7 1.7-2 1.7h-.4l-.2 1h-.7l.3-1.1c-.7-.3-1.1-.9-1.1-1.7v-.1h.9c0 .4.1.7.4.9l.4-1.6c-1.1-.2-1.6-.6-1.6-1.4V69c0-1 .8-1.6 2-1.6h.3l.2-1h.7l-.2 1.2zm-1.2 2.2l.4-1.7h-.2c-.6 0-1.1.3-1.1.8s.3.8.9.9zm1.4 1.7c0-.5-.3-.7-.9-.9l-.4 1.8h.2c.7 0 1.1-.3 1.1-.9z" class="C"/><path fill="#fff" d="M85.6 111.1h110.6a1.54 1.54 0 0 1 1.5 1.5v71.9a1.54 1.54 0 0 1-1.5 1.5H85.6a1.54 1.54 0 0 1-1.5-1.5v-71.9a1.54 1.54 0 0 1 1.5-1.5z"/><g class="G"><circle cx="90.1" cy="115.7" r="1.9"/><path d="M100.2 115.7c0 1-.8 1.9-1.9 1.9s-1.9-.8-1.9-1.9.8-1.9 1.9-1.9c1.1.1 1.9.9 1.9 1.9z"/><circle cx="106.5" cy="115.7" r="1.9"/></g><path d="M129.9 124.4H191v55.2h-61.1zm-37 0h21.6v1.4H92.9zm0 7h32.3v1.4H92.9zm0 4.6h32.3v1.4H92.9zm0 4.6h32.3v1.4H92.9zm0 4.6h32.3v1.4H92.9zm0 4.6h32.3v1.4H92.9zm0 4.6h32.3v1.4H92.9zm0 4.5h32.3v1.4H92.9zm0 4.6h21.3v1.4H92.9z" fill="#b2b1b2"/><path d="M135.3 131.2h7.6v41.7h-7.6zm14.3 0h7.6v41.7h-7.6zm14.3 0h7.6v41.7h-7.6zm14.2 0h7.6v41.7h-7.6z" fill="#fff"/><path d="M135.3 161.6h7.6v11.2h-7.6zm14.3-5.8h7.6v17.1h-7.6zm14.3-13.8h7.6v30.8h-7.6zm14.2 6.3h7.6v24.5h-7.6z" class="G"/><path d="M210.9 122.7l6.8 8.6-2.1 1.4-.5.3c-.9.6-2.2.3-2.8-.6-.1-.1-.1-.2-.2-.3l-2.5-6.2c-.2-.6-.2-1.3.2-1.9l1.1-1.3z" class="I"/><path d="M210.9 122.7l-.4.7 1.7 2.1c1.5 2.3 2.4 5 2.4 7.8.2 0 .4-.1.6-.3l.5-.3 2.1-1.4-6.9-8.6z" class="E"/><path d="M217.9 114.5l16.1 3.4c2.1.4 3.8 1.7 5 3.4l10.7 16.4 11.7 12.5-14.1 9.3-15.8-7c-1-.4-1.9-1.1-2.7-1.9l6.6-16.5-8.5-7.5-9.9-10.8c-.2-.3-.5-.5-.8-.7.6-.5 1.2-.7 1.7-.6z" class="I"/><path d="M228.7 125.4l-2.8-1.6c-3-2.8-5.7-5.9-8.1-9.2-.5-.1-1 .1-1.5.4.3.2.6.4.8.7l5.9 6.5-.1-.1 4.1 4.4 8.5 7.5-6.8-8.6z" class="E"/><path d="M167.04 119.985l5.304-25.454 54.824 11.424-5.304 25.454z" class="B"/><path fill="#e5b642" d="M170.6 115.1l3.1-14.7c1.7.4 3.3-.7 3.7-2.4l44.1 9.2c-.4 1.7.7 3.3 2.4 3.7l-3.1 14.7c-1.7-.4-3.3.7-3.7 2.4l-44.1-9.2c.4-1.7-.7-3.4-2.4-3.7z"/><path d="M189.5 111.4c-.9 4.3 1.9 8.4 6.1 9.3 4.3.9 8.4-1.9 9.3-6.1.9-4.3-1.9-8.4-6.1-9.3s-8.4 1.8-9.3 6.1c0-.1 0-.1 0 0z" class="B"/><path fill="#e5b642" d="M199.8 115.3c-.1.6-.5 1.1-1 1.3-.6.3-1.3.4-2 .3l-.3 1.5-.8-.2.3-1.4c-.5-.1-.9-.2-1.4-.4-.4-.1-.7-.3-1.1-.5l.2-1c.4.3.8.5 1.2.6.4.2.8.3 1.2.4l.6-2.9c-.7-.3-1.2-.8-1.7-1.4-.3-.5-.4-1-.2-1.6.1-.5.4-1 .9-1.3.6-.3 1.2-.4 1.9-.3l.2-1.2.8.2-.2 1.2c.8.2 1.5.5 2.2 1l-.5.8c-.6-.4-1.2-.7-1.9-.9l-.6 2.8 1.4.9c.3.2.5.5.6.9.2.5.2.9.2 1.2zm-3.9-4.9c-.1.3 0 .6.1.9a2.36 2.36 0 0 0 .9.8l.5-2.5c-.4 0-.7 0-1.1.2-.1 0-.3.3-.4.6zm2.8 4.8c.1-.3 0-.6-.1-.8-.3-.3-.6-.6-1-.8l-.5 2.5c.9 0 1.4-.3 1.6-.9z"/><path d="M249.8 137.7l-10.7-16.4c-.8-1.1-1.8-2.1-3-2.7l10.9 18.5 12 14.7 2.5-1.6-11.7-12.5z" class="E"/><path d="M222.8 138.8l-1.3-2.7-3.7-4.7-6.8-8.6-.9-1.1a4.49 4.49 0 0 1 .7-6.4c.1-.1.3-.2.4-.3 1.6-1 3.6-1 5.2.1.3.2.6.4.8.7l9.9 10.8 8.5 7.5-6.5 16.5c-.5-.5-.9-1.1-1.2-1.8l-5.1-10zm-5.1-7.4l3.7 4.7 1.3 2.7-.5.4c-.9.6-2.1.3-2.8-.6l-3.8-5.8 2.1-1.4z" class="I"/><path fill="#fbd2c4" d="M217.8 119l-4.6 3.8-1.9-2.3c-1.1-1.3-.9-3.1.4-4.2s3.1-.9 4.2.4l1.9 2.3z"/><path d="M219.8 138.9c.7.6 1.7.7 2.5.2l.5-.4-1.3-2.7-1-1.3c0 1.5-.2 2.9-.7 4.2z" class="E"/><path fill="#efeeee" d="M241.834 158.256l19.91-13.042 2.192 3.346-19.91 13.042z"/><path fill="#f1f2f2" d="M258.55 147.424l3.346-2.192 2.192 3.346-3.346 2.192z"/><path d="M290.7 188.3l-25-40.9-23.3 15.3 27.2 39.3h21.3z" class="F"/><path fill="#f1f2f2" d="M260.686 150.746l5.02-3.288 17.426 26.6-5.02 3.288z"/><path d="M332.7 170.7c0-10.5-12.1-19.1-27-19.1s-27 8.5-27 19.1c0 10.5 12.1 19.1 27 19.1 3.8 0 7.5-.6 11.1-1.7l8.8 6-4-8c6.8-3.5 11.1-9.1 11.1-15.4zm-38.9 2.9a3.37 3.37 0 1 1 0-6.8 3.37 3.37 0 1 1 0 6.8zm11.9 0a3.37 3.37 0 1 1 0-6.8c1.9 0 3.4 1.5 3.5 3.4 0 1.9-1.6 3.4-3.5 3.4zm11.9 0a3.37 3.37 0 1 1 0-6.8 3.37 3.37 0 1 1 0 6.8z" class="D"/></svg>